<?xml version="1.0" encoding="UTF-8" standalone="no"?>
<!-- Created with Inkscape (http://www.inkscape.org/) -->

<svg
   width="16.051216mm"
   height="19.524811mm"
   viewBox="0 0 16.051216 19.524811"
   version="1.1"
   id="svg1"
   xml:space="preserve"
   xmlns:inkscape="http://www.inkscape.org/namespaces/inkscape"
   xmlns:sodipodi="http://sodipodi.sourceforge.net/DTD/sodipodi-0.dtd"
   xmlns="http://www.w3.org/2000/svg"
   xmlns:svg="http://www.w3.org/2000/svg"><sodipodi:namedview
     id="namedview1"
     pagecolor="#505050"
     bordercolor="#eeeeee"
     borderopacity="1"
     inkscape:showpageshadow="0"
     inkscape:pageopacity="0"
     inkscape:pagecheckerboard="0"
     inkscape:deskcolor="#505050"
     inkscape:document-units="mm" /><defs
     id="defs1" /><g
     inkscape:label="Layer 1"
     inkscape:groupmode="layer"
     id="layer1"
     transform="translate(-83.320498,-165.02507)"><g
       style="fill:none"
       id="g9"
       transform="matrix(0.26458333,0,0,0.26458333,126.20626,151.26654)"><path
         d="m -143.73441,-64.612541 c -1.05188,0 -2.10381,0.145722 -3.125,0.4375 l -18.95704,5.416015 c -4.88329,1.395228 -8.25,5.858812 -8.25,10.9375 v 20.378907 c 0,11.020678 5.32114,21.361998 14.28907,27.76757796 l 9.43164,6.73633004 c 3.95499,2.825 9.26766,2.825 13.22265,0 l 9.43164,-6.73633004 c 8.96799,-6.40557996 14.29102,-16.74689996 14.29102,-27.76757796 v -20.378907 c 0,-5.078688 -3.36671,-9.542272 -8.25,-10.9375 l -18.95898,-5.416015 c -1.0212,-0.291778 -2.07313,-0.437501 -3.125,-0.4375 z m 0.0664,15.033203 c 1.97068,0.03009 3.96482,0.361801 5.92187,1.025391 1.38451,0.469491 2.67896,1.055272 3.87109,1.740234 4.13631,2.374975 7.11546,5.949086 8.67969,10.070313 1.56079,4.111247 1.70114,8.757733 0.16602,13.287109 -0.44247,1.304426 -1.02307,2.596284 -1.7461,3.855469 -1.70256,2.965978 -4.11929,5.390691 -7.01172,7.083981 -2.83841,1.66046 -6.11902,2.60953 -9.61523,2.66407 -1.14429,0.0189 -2.31677,-0.0532 -3.50195,-0.21875 -1.17301,-0.16441 -2.30225,-0.41206 -3.36524,-0.7461 -1.44309,-0.45131 -2.24725,-1.98712 -1.79492,-3.42969 0.45226,-1.44255 1.9893,-2.24841 3.43164,-1.79687 0.83924,0.26381 1.66717,0.44964 2.47266,0.5625 0.85247,0.11943 1.74545,0.17061 2.66406,0.15625 2.55435,-0.0397 4.92933,-0.71969 6.96094,-1.908204 2.06191,-1.206497 3.79202,-2.947258 5.01953,-5.085937 0.54826,-0.956483 0.98571,-1.928008 1.31445,-2.898438 1.11345,-3.282285 1.01526,-6.639666 -0.10937,-9.601562 -1.1215,-2.95275 -3.2766,-5.525997 -6.28321,-7.251954 -0.89846,-0.516092 -1.87348,-0.957086 -2.91406,-1.310546 -2.81011,-0.95225 -5.73545,-0.952055 -8.42383,-0.164063 -2.71936,0.797063 -5.19636,2.404297 -7.06836,4.650391 l 1.90039,0.109375 c 1.5665,0.08768 2.76644,1.431322 2.67774,2.998047 -0.0877,1.566648 -1.42929,2.764411 -2.9961,2.675781 l -8.14257,-0.470703 c -1.56151,-0.08731 -2.7573,-1.422274 -2.67774,-2.982422 l -0.0312,-7.726563 c -0.008,-1.566195 1.25926,-2.844003 2.82617,-2.851562 1.56609,-0.0076 2.84289,1.259107 2.84961,2.826172 l 0.004,1.234375 c 2.49343,-2.726358 5.67253,-4.692218 9.14258,-5.708985 1.86215,-0.545856 3.80861,-0.817204 5.7793,-0.787109 z"
         style="clip-rule:evenodd;fill:#000000;fill-rule:evenodd"
         id="path14" /><g
         style="fill:none"
         id="g15"
         transform="translate(-162.25511,51.114495)"><path
           d="m 30.499211,19.778824 c -9.55793,0 -17.240234,7.684258 -17.240234,17.242188 0,9.55793 7.682304,17.242188 17.240234,17.242188 9.557931,-10e-6 17.242188,-7.684258 17.242188,-17.242188 0,-9.55793 -7.684257,-17.242188 -17.242188,-17.242188 z m -0.853515,6.832032 a 2.9990549,2.9990549 0 0 1 3,2.998046 v 6.976563 l 5.21289,3.958984 a 2.9990549,2.9990549 0 0 1 0.574219,4.203126 2.9990549,2.9990549 0 0 1 -4.203125,0.574218 l -7.582031,-5.761719 v -9.951172 a 2.9990549,2.9990549 0 0 1 2.998047,-2.998046 z"
           style="clip-rule:evenodd;fill:#000000;fill-rule:evenodd"
           id="path22" /><path
           d="m 30.499211,0.88624584 c -1.051874,1.2e-7 -2.103801,0.14572276 -3.125,0.43749996 L 8.4171796,6.7417147 C 3.5338845,8.1369433 0.16717954,12.60052 0.16717954,17.679215 v 20.376953 c 0,11.020689 5.32113166,21.363938 14.28906246,27.769532 l 9.431641,6.736328 c 3.954996,2.824997 9.26766,2.824997 13.222656,0 L 46.54218,65.8257 C 55.510171,59.420106 60.833196,49.076857 60.833196,38.056168 V 17.679215 c 0,-5.078695 -3.366705,-9.5422717 -8.25,-10.9375003 L 33.624211,1.3237458 c -1.021199,-0.2917777 -2.073126,-0.43750009 -3.125,-0.43749996 z m 0,12.89453116 c 12.799547,0 23.240235,10.440693 23.240235,23.240235 0,12.79954 -10.440688,23.240235 -23.240235,23.240235 -12.799537,0 -23.2402345,-10.440695 -23.2402345,-23.240235 0,-12.799542 10.4406975,-23.240235 23.2402345,-23.240235 z"
           style="clip-rule:evenodd;fill:#000000;fill-rule:evenodd"
           id="path21" /></g><g
         id="g17"
         transform="translate(-4.788086e-6,-0.76287968)"><path
           d="m 19.84166,52.763667 c -1.051874,0 -2.103801,0.145723 -3.125,0.4375 l -18.9570312,5.417969 c -4.883295,1.395228 -8.2499998,5.858805 -8.2499998,10.9375 v 20.376953 c 0,11.020701 5.3211308,21.363941 14.2890618,27.769541 l 9.4316412,6.73633 c 3.954996,2.82499 9.26766,2.82499 13.222656,0 l 9.431641,-6.73633 c 8.967991,-6.4056 14.291016,-16.74884 14.291016,-27.769541 V 69.556636 c 0,-5.078695 -3.366705,-9.542272 -8.25,-10.9375 L 22.96666,53.201167 c -1.021199,-0.291778 -2.073126,-0.4375 -3.125,-0.4375 z m 0,15.894531 A 20.240932,20.240932 0 0 1 40.083848,88.898433 20.240932,20.240932 0 0 1 19.84166,109.13867 20.240932,20.240932 0 0 1 -0.39857417,88.898433 20.240932,20.240932 0 0 1 19.84166,68.658198 Z"
           style="clip-rule:evenodd;fill:#000000;fill-opacity:1;fill-rule:evenodd"
           id="path19" /><path
           d="m 18.988144,78.488281 a 2.9990549,2.9990549 0 0 0 -2.99805,2.998047 V 91.4375 l 7.58203,5.761723 a 2.9990549,2.9990549 0 0 0 4.20313,-0.57422 2.9990549,2.9990549 0 0 0 -0.57422,-4.203128 l -5.21289,-3.958984 v -6.976563 a 2.9990549,2.9990549 0 0 0 -3,-2.998047 z"
           style="fill:#000000;fill-opacity:1;stroke:none;stroke-width:5.99811;stroke-linecap:round;stroke-linejoin:round;stroke-miterlimit:1.3;stroke-dashoffset:154"
           id="path20" /></g></g></g></svg>
