<svg width="73" height="81" viewBox="0 0 73 81" fill="none" xmlns="http://www.w3.org/2000/svg">
<path d="M28.6042 0.583374C18.1506 0.583374 9.64591 9.08808 9.64591 19.5417C9.64591 29.9953 18.1506 38.5 28.6042 38.5C39.0579 38.5 47.5626 29.9953 47.5626 19.5417C47.5626 9.08808 39.0579 0.583374 28.6042 0.583374ZM53.2501 38.5C52.1372 38.5 51.0478 38.5939 49.9842 38.774L49.3288 41.4882C48.3108 45.7064 43.9703 48.2136 39.8089 46.9832L37.5243 46.3055C36.1517 48.0744 35.052 50.0851 34.2917 52.2596L35.9876 53.8889C39.0873 56.8729 39.0873 61.8355 35.9876 64.8195L34.2917 66.4525C35.052 68.627 36.1498 70.6322 37.5243 72.4029L39.8089 71.729C43.9703 70.4986 48.3108 73.0057 49.3288 77.2239L49.9842 79.9381C51.0478 80.1163 52.1391 80.2084 53.2501 80.2084C54.3629 80.2084 55.4524 80.1145 56.5159 79.9344L57.1713 77.2202C58.1894 73.002 62.5299 70.4949 66.6912 71.7253L68.9759 72.4029C70.3484 70.6341 71.4482 68.6233 72.2084 66.4488L70.5125 64.8195C67.4128 61.8374 67.4128 56.871 70.5125 53.8889L72.2084 52.2596C71.4482 50.0851 70.3503 48.0762 68.9759 46.3055L66.6912 46.9832C62.5299 48.2136 58.1894 45.7064 57.1713 41.4882L56.5159 38.774C55.4524 38.5939 54.3629 38.5 53.2501 38.5ZM8.698 46.0834C3.99444 46.0834 0.166748 49.9111 0.166748 54.6146V56.8881C0.166748 67.8385 13.4907 76.4167 30.5001 76.4167C32.1286 76.4167 33.7111 76.3129 35.2619 76.1612C31.1441 71.7572 28.6042 65.8588 28.6042 59.3542C28.6042 54.463 30.0463 49.9168 32.5033 46.0834H8.698ZM53.2501 53.6667C56.3915 53.6667 58.9376 56.2128 58.9376 59.3542C58.9376 62.4956 56.3915 65.0417 53.2501 65.0417C50.1087 65.0417 47.5626 62.4956 47.5626 59.3542C47.5626 56.2128 50.1087 53.6667 53.2501 53.6667Z" fill="#000000"/>
</svg>
