<svg width="36" height="36" viewBox="0 0 36 36" fill="none" xmlns="http://www.w3.org/2000/svg">
<path d="M4.5 10.5C4.5 7.18629 7.18629 4.5 10.5 4.5H25.5C28.8137 4.5 31.5 7.18629 31.5 10.5V25.5C31.5 28.8137 28.8137 31.5 25.5 31.5H10.5C7.18629 31.5 4.5 28.8137 4.5 25.5V10.5Z" stroke="#352238" stroke-width="2"/>
<path d="M13.5 16.5C15.1569 16.5 16.5 15.1569 16.5 13.5C16.5 11.8431 15.1569 10.5 13.5 10.5C11.8431 10.5 10.5 11.8431 10.5 13.5C10.5 15.1569 11.8431 16.5 13.5 16.5Z" stroke="#352238" stroke-width="2" stroke-linecap="round" stroke-linejoin="round"/>
<path d="M6 30L10.3107 24.6116C11.2665 23.4169 12.977 23.1513 14.25 24C15.523 24.8487 17.2335 24.5831 18.1893 23.3884L20.5881 20.3899C21.6378 19.0778 23.5604 18.8836 24.8512 19.9593L31.5 25.5" stroke="#352238" stroke-width="2"/>
</svg>
