<svg width="32" height="32" viewBox="0 0 32 32" fill="none" xmlns="http://www.w3.org/2000/svg">
<path fill-rule="evenodd" clip-rule="evenodd" d="M16 2.66669C8.63619 2.66669 2.66666 8.63622 2.66666 16C2.66666 23.3638 8.63619 29.3334 16 29.3334C23.3638 29.3334 29.3333 23.3638 29.3333 16C29.3333 8.63622 23.3638 2.66669 16 2.66669ZM22.1869 10.9758C22.7526 11.4472 22.829 12.2879 22.3576 12.8536L15.691 20.8536C15.4582 21.1329 15.1215 21.3051 14.7588 21.3302C14.396 21.3553 14.0388 21.2312 13.7698 20.9866L9.76977 17.3503C9.22489 16.8549 9.18474 16.0117 9.68008 15.4668C10.1754 14.9219 11.0187 14.8818 11.5636 15.3771L14.5335 18.0771L20.309 11.1465C20.7805 10.5808 21.6212 10.5043 22.1869 10.9758Z" fill="black"/>
</svg>
