<svg width="50" height="50" viewBox="0 0 50 50" fill="none" xmlns="http://www.w3.org/2000/svg">
<path fill-rule="evenodd" clip-rule="evenodd" d="M11.0267 11.0269C11.8403 10.2133 13.1594 10.2133 13.973 11.0269L38.973 36.0269C39.7866 36.8405 39.7866 38.1595 38.973 38.9731C38.1594 39.7867 36.8403 39.7867 36.0267 38.9731L11.0267 13.9731C10.2131 13.1595 10.2131 11.8405 11.0267 11.0269Z" fill="black"/>
<path fill-rule="evenodd" clip-rule="evenodd" d="M38.9728 11.0269C38.1592 10.2133 36.8401 10.2133 36.0265 11.0269L11.0265 36.0269C10.2129 36.8405 10.2129 38.1595 11.0265 38.9731C11.8401 39.7867 13.1592 39.7867 13.9728 38.9731L38.9728 13.9731C39.7864 13.1595 39.7864 11.8405 38.9728 11.0269Z" fill="black"/>
</svg>
