<svg width="69" height="85" viewBox="0 0 69 85" fill="none" xmlns="http://www.w3.org/2000/svg">
<path fill-rule="evenodd" clip-rule="evenodd" d="M34.4999 2.52079C34.4999 1.35869 33.5578 0.416626 32.3957 0.416626H17.6666C8.36979 0.416626 0.833252 7.95317 0.833252 17.25V67.75C0.833252 77.0468 8.36979 84.5833 17.6666 84.5833H51.3332C60.63 84.5833 68.1666 77.0468 68.1666 67.75V36.1875C68.1666 35.0254 67.2245 34.0833 66.0624 34.0833H55.5416C43.9206 34.0833 34.4999 24.6626 34.4999 13.0416V2.52079ZM64.8818 25.6666C66.2811 25.6666 67.2867 24.3155 66.6145 23.0882C66.0438 22.0462 65.324 21.0809 64.4688 20.2257L48.3575 4.1144C47.5023 3.2592 46.537 2.53936 45.495 1.96867C44.2677 1.29653 42.9166 2.30215 42.9166 3.70143V13.0416C42.9166 20.0142 48.569 25.6666 55.5416 25.6666H64.8818ZM34.4999 38.2916C36.8241 38.2916 38.7082 40.1758 38.7082 42.5V50.9166H47.1249C49.4491 50.9166 51.3332 52.8008 51.3332 55.125C51.3332 57.4492 49.4491 59.3333 47.1249 59.3333H38.7082V67.75C38.7082 70.0742 36.8241 71.9583 34.4999 71.9583C32.1757 71.9583 30.2916 70.0742 30.2916 67.75V59.3333H21.8749C19.5507 59.3333 17.6666 57.4492 17.6666 55.125C17.6666 52.8008 19.5507 50.9166 21.8749 50.9166H30.2916V42.5C30.2916 40.1758 32.1757 38.2916 34.4999 38.2916Z" fill="#000"/>
</svg>
