<svg width="70" height="88" viewBox="0 0 70 88" fill="none" xmlns="http://www.w3.org/2000/svg">
<path fill-rule="evenodd" clip-rule="evenodd" d="M34.9999 2.83329C34.9999 1.63668 34.0299 0.666626 32.8332 0.666626H17.6666C8.09365 0.666626 0.333252 8.42703 0.333252 18V70C0.333252 79.5729 8.09365 87.3333 17.6666 87.3333H52.3332C61.9062 87.3333 69.6666 79.5729 69.6666 70V37.5C69.6666 36.3033 68.6965 35.3333 67.4999 35.3333H56.6666C44.7004 35.3333 34.9999 25.6328 34.9999 13.6666V2.83329ZM66.2842 26.6666C67.725 26.6666 68.7605 25.2753 68.0684 24.0116C67.4808 22.9386 66.7396 21.9447 65.859 21.0641L49.2691 4.47424C48.3885 3.59363 47.3946 2.85241 46.3216 2.26478C45.0579 1.57267 43.6666 2.60816 43.6666 4.049V13.6666C43.6666 20.8463 49.4869 26.6666 56.6666 26.6666H66.2842ZM21.9999 31C19.6067 31 17.6666 32.9401 17.6666 35.3333C17.6666 37.7265 19.6067 39.6666 21.9999 39.6666H26.3333C28.7265 39.6666 30.6666 37.7265 30.6666 35.3333C30.6666 32.9401 28.7265 31 26.3333 31H21.9999ZM17.6666 52.6666C17.6666 50.2734 19.6067 48.3333 21.9999 48.3333H47.9999C50.3931 48.3333 52.3332 50.2734 52.3332 52.6666C52.3332 55.0599 50.3931 57 47.9999 57H21.9999C19.6067 57 17.6666 55.0599 17.6666 52.6666ZM17.6666 70C17.6666 67.6067 19.6067 65.6666 21.9999 65.6666H47.9999C50.3931 65.6666 52.3332 67.6067 52.3332 70C52.3332 72.3932 50.3931 74.3333 47.9999 74.3333H21.9999C19.6067 74.3333 17.6666 72.3932 17.6666 70Z" fill="#000"/>
</svg>
