<svg width="69" height="69" viewBox="0 0 69 69" fill="none" xmlns="http://www.w3.org/2000/svg">
<path fill-rule="evenodd" clip-rule="evenodd" d="M17.625 0.75C8.3052 0.75 0.75 8.3052 0.75 17.625V51.375C0.75 60.6948 8.3052 68.25 17.625 68.25H51.375C60.6948 68.25 68.25 60.6948 68.25 51.375V17.625C68.25 8.3052 60.6948 0.75 51.375 0.75H17.625ZM37.875 21C37.875 19.136 36.364 17.625 34.5 17.625C32.636 17.625 31.125 19.136 31.125 21V48C31.125 49.864 32.636 51.375 34.5 51.375C36.364 51.375 37.875 49.864 37.875 48V21ZM21 27.75C22.864 27.75 24.375 29.261 24.375 31.125V48C24.375 49.864 22.864 51.375 21 51.375C19.136 51.375 17.625 49.864 17.625 48V31.125C17.625 29.261 19.136 27.75 21 27.75ZM48 34.5C49.864 34.5 51.375 36.011 51.375 37.875V48C51.375 49.864 49.864 51.375 48 51.375C46.136 51.375 44.625 49.864 44.625 48V37.875C44.625 36.011 46.136 34.5 48 34.5Z" fill="#000"/>
</svg>
