<svg width="50" height="50" viewBox="0 0 50 50" fill="none" xmlns="http://www.w3.org/2000/svg">
<path fill-rule="evenodd" clip-rule="evenodd" d="M42.6645 15.788L31.4435 6.51045C27.6639 3.38539 22.3358 3.38539 18.5561 6.51045L7.33518 15.788C5.31356 17.4595 4.1665 19.9939 4.1665 22.6381V39.3207C4.1665 42.7957 6.84657 45.8333 10.4165 45.8333H14.5832C18.0349 45.8333 20.8332 43.0351 20.8332 39.5833V32.6766C20.8332 31.2592 21.8841 30.3306 22.9165 30.3306H27.0832C28.1156 30.3306 29.1665 31.2592 29.1665 32.6766V39.5833C29.1665 43.0351 31.9647 45.8333 35.4165 45.8333H39.5832C43.1531 45.8333 45.8332 42.7957 45.8332 39.3207V22.6381C45.8332 19.9939 44.6861 17.4595 42.6645 15.788Z" fill="black"/>
</svg>
