<svg width="38" height="38" viewBox="0 0 38 38" fill="none" xmlns="http://www.w3.org/2000/svg">
<path d="M17.6262 1.96578C14.9347 2.23234 12.4171 3.41748 10.4967 5.32192C8.57631 7.22636 7.37019 9.73397 7.08117 12.4231C6.92813 14.3081 7.23754 16.202 7.98254 17.9404C8.72753 19.6787 9.88559 21.2089 11.3562 22.3981C11.7783 22.7315 12.1202 23.1554 12.3567 23.6386C12.5932 24.1217 12.7183 24.6517 12.7227 25.1896V25.2481C12.7227 25.635 12.7995 26.0182 12.9487 26.3752C13.0978 26.7323 13.3164 27.0561 13.5917 27.328C13.867 27.6 14.1936 27.8145 14.5525 27.9592C14.9114 28.104 15.2954 28.176 15.6823 28.1712H22.2592C22.6462 28.176 23.0302 28.104 23.3891 27.9592C23.748 27.8145 24.0745 27.6 24.3498 27.328C24.6251 27.0561 24.8437 26.7323 24.9929 26.3752C25.1421 26.0182 25.2189 25.635 25.2189 25.2481V25.1896C25.2233 24.6517 25.3484 24.1217 25.5849 23.6386C25.8214 23.1554 26.1633 22.7315 26.5854 22.3981C27.9251 21.3212 29.0088 19.9601 29.7582 18.4132C30.5076 16.8663 30.9041 15.1723 30.9189 13.4535C30.9554 6.6427 24.8462 1.2277 17.6262 1.96578ZM24.1154 31.54H13.8846C13.5823 31.54 13.2923 31.6601 13.0785 31.8739C12.8647 32.0877 12.7446 32.3777 12.7446 32.68C12.7466 33.5865 13.1075 34.4552 13.7485 35.0962C14.3894 35.7371 15.2582 36.0981 16.1646 36.1H21.8646C22.7711 36.0981 23.6398 35.7371 24.2808 35.0962C24.9218 34.4552 25.2827 33.5865 25.2846 32.68C25.2847 32.5278 25.2543 32.3771 25.1951 32.2369C25.136 32.0966 25.0494 31.9696 24.9405 31.8634C24.8315 31.7571 24.7023 31.6738 24.5606 31.6182C24.4189 31.5627 24.2675 31.5361 24.1154 31.54Z" fill="#000"/>
</svg>
