<svg width="44" height="37" viewBox="0 0 44 37" fill="none" xmlns="http://www.w3.org/2000/svg">
<g clip-path="url(#clip0_439_2007)">
<path d="M7.25 10H38.75C39.2141 10 39.6592 9.78929 39.9874 9.41421C40.3156 9.03914 40.5 8.53043 40.5 8C40.5 7.46957 40.3156 6.96086 39.9874 6.58579C39.6592 6.21071 39.2141 6 38.75 6H7.25C6.78587 6 6.34075 6.21071 6.01256 6.58579C5.68437 6.96086 5.5 7.46957 5.5 8C5.5 8.53043 5.68437 9.03914 6.01256 9.41421C6.34075 9.78929 6.78587 10 7.25 10V10ZM38.75 26H7.25C6.78587 26 6.34075 26.2107 6.01256 26.5858C5.68437 26.9609 5.5 27.4696 5.5 28C5.5 28.5304 5.68437 29.0391 6.01256 29.4142C6.34075 29.7893 6.78587 30 7.25 30H38.75C39.2141 30 39.6592 29.7893 39.9874 29.4142C40.3156 29.0391 40.5 28.5304 40.5 28C40.5 27.4696 40.3156 26.9609 39.9874 26.5858C39.6592 26.2107 39.2141 26 38.75 26ZM38.75 16H7.25C6.78587 16 6.34075 16.2107 6.01256 16.5858C5.68437 16.9609 5.5 17.4696 5.5 18C5.5 18.5304 5.68437 19.0391 6.01256 19.4142C6.34075 19.7893 6.78587 20 7.25 20H38.75C39.2141 20 39.6592 19.7893 39.9874 19.4142C40.3156 19.0391 40.5 18.5304 40.5 18C40.5 17.4696 40.3156 16.9609 39.9874 16.5858C39.6592 16.2107 39.2141 16 38.75 16Z" fill="#000
"/>
</g>
<defs>
<clipPath id="clip0_439_2007">
<rect width="44" height="37" fill="white"/>
</clipPath>
</defs>
</svg>
