<svg width="50" height="50" viewBox="0 0 50 50" fill="none" xmlns="http://www.w3.org/2000/svg">
<path fill-rule="evenodd" clip-rule="evenodd" d="M25.0001 4.16666C13.4941 4.16666 4.16675 13.4941 4.16675 25C4.16675 36.5059 13.4941 45.8333 25.0001 45.8333C36.506 45.8333 45.8334 36.5059 45.8334 25C45.8334 13.4941 36.506 4.16666 25.0001 4.16666ZM23.5269 15.1935C24.3405 14.3799 25.6596 14.3799 26.4732 15.1935L34.8066 23.5268C35.1973 23.9176 35.4167 24.4475 35.4167 25C35.4167 25.5525 35.1973 26.0824 34.8066 26.4731L26.4732 34.8065C25.6596 35.6201 24.3405 35.6201 23.5269 34.8065C22.7133 33.9929 22.7133 32.6738 23.5269 31.8602L28.3038 27.0833H16.6667C15.5162 27.0833 14.5834 26.1506 14.5834 25C14.5834 23.8494 15.5162 22.9167 16.6667 22.9167H28.3038L23.5269 18.1398C22.7133 17.3262 22.7133 16.0071 23.5269 15.1935Z" fill="black"/>
</svg>
