<svg width="50" height="50" viewBox="0 0 50 50" fill="none" xmlns="http://www.w3.org/2000/svg">
<path fill-rule="evenodd" clip-rule="evenodd" d="M25.0001 4.16666C36.506 4.16666 45.8334 13.4941 45.8334 25C45.8334 36.5059 36.506 45.8333 25.0001 45.8333C13.4941 45.8333 4.16675 36.5059 4.16675 25C4.16675 13.4941 13.4941 4.16666 25.0001 4.16666ZM26.4732 15.1935C25.6596 14.3799 24.3405 14.3799 23.5269 15.1935L15.1936 23.5268C14.8029 23.9176 14.5834 24.4475 14.5834 25C14.5834 25.5525 14.8029 26.0824 15.1936 26.4731L23.5269 34.8065C24.3405 35.6201 25.6596 35.6201 26.4732 34.8065C27.2868 33.9929 27.2868 32.6738 26.4732 31.8602L21.6964 27.0833H33.3334C34.484 27.0833 35.4167 26.1506 35.4167 25C35.4167 23.8494 34.484 22.9167 33.3334 22.9167H21.6964L26.4732 18.1398C27.2868 17.3262 27.2868 16.0071 26.4732 15.1935Z" fill="black"/>
</svg>
