<svg width="70" height="70" viewBox="0 0 70 70" fill="none" xmlns="http://www.w3.org/2000/svg">
<path fill-rule="evenodd" clip-rule="evenodd" d="M35 0C15.67 0 0 15.67 0 35C0 54.33 15.67 70 35 70C54.33 70 70 54.33 70 35C70 15.67 54.33 0 35 0ZM35 17.5C36.933 17.5 38.5 19.067 38.5 21V35C38.5 36.933 36.933 38.5 35 38.5C33.067 38.5 31.5 36.933 31.5 35V21C31.5 19.067 33.067 17.5 35 17.5ZM31.5 49C31.5 47.067 33.067 45.5 35 45.5H35.035C36.968 45.5 38.535 47.067 38.535 49C38.535 50.933 36.968 52.5 35.035 52.5H35C33.067 52.5 31.5 50.933 31.5 49Z" fill="#000"/>
</svg>
