<svg width="50" height="50" viewBox="0 0 50 50" fill="none" xmlns="http://www.w3.org/2000/svg">
<path fill-rule="evenodd" clip-rule="evenodd" d="M23.4806 4.16669C20.5569 4.16669 18.1868 6.53682 18.1868 9.46052C18.1868 9.88423 17.8946 10.4495 17.1963 10.8288C16.9814 10.9455 16.7694 11.0669 16.5606 11.1928C15.8641 11.6127 15.2103 11.5857 14.8264 11.3661C12.2768 9.90727 9.02786 10.7778 7.54921 13.3159L6.08167 15.835C4.60018 18.378 5.47448 21.641 8.02896 23.1026C8.39932 23.3145 8.74755 23.8535 8.73058 24.6555C8.72816 24.7701 8.72694 24.8849 8.72694 25C8.72694 25.1151 8.72816 25.23 8.73058 25.3446C8.74755 26.1466 8.39934 26.6856 8.029 26.8975C5.47455 28.3591 4.60025 31.6221 6.08173 34.165L7.54932 36.6842C9.02796 39.2223 12.2769 40.0928 14.8265 38.634C15.2103 38.4143 15.8641 38.3874 16.5606 38.8073C16.7694 38.9332 16.9814 39.0545 17.1963 39.1712C17.8946 39.5505 18.1868 40.1158 18.1868 40.5395C18.1868 43.4632 20.5569 45.8334 23.4806 45.8334H26.5195C29.4432 45.8334 31.8134 43.4632 31.8134 40.5395C31.8134 40.1158 32.1056 39.5505 32.8039 39.1712C33.0188 39.0545 33.2307 38.9332 33.4395 38.8073C34.136 38.3874 34.7898 38.4144 35.1737 38.634C37.7233 40.0928 40.9722 39.2223 42.4509 36.6842L43.9184 34.1651C45.3999 31.6221 44.5256 28.3591 41.9712 26.8975C41.6008 26.6856 41.2526 26.1467 41.2696 25.3446C41.272 25.23 41.2732 25.1151 41.2732 25C41.2732 24.8849 41.272 24.7701 41.2696 24.6555C41.2526 23.8534 41.6009 23.3145 41.9712 23.1026C44.5257 21.641 45.4 18.3779 43.9185 15.8349L42.451 13.3159C40.9723 10.7778 37.7234 9.90725 35.1738 11.366C34.7899 11.5857 34.1361 11.6126 33.4396 11.1928C33.2307 11.0669 33.0188 10.9455 32.8039 10.8288C32.1056 10.4495 31.8134 9.88423 31.8134 9.46052C31.8134 6.53682 29.4432 4.16669 26.5195 4.16669H23.4806ZM24.9999 18.75C21.5482 18.75 18.7499 21.5482 18.7499 25C18.7499 28.4518 21.5482 31.25 24.9999 31.25C28.4517 31.25 31.2499 28.4518 31.2499 25C31.2499 21.5482 28.4517 18.75 24.9999 18.75Z" fill="black"/>
</svg>
