<svg width="43" height="43" viewBox="0 0 43 43" fill="none" xmlns="http://www.w3.org/2000/svg">
<path fill-rule="evenodd" clip-rule="evenodd" d="M21.5 0.25C9.76395 0.25 0.25 9.76395 0.25 21.5C0.25 25.3575 1.27958 28.9792 3.07894 32.1001C3.44541 32.7358 3.50826 33.5097 3.19901 34.175L1.38487 38.0783C0.270955 40.1858 1.79565 42.75 4.20588 42.75H21.5C33.2361 42.75 42.75 33.2361 42.75 21.5C42.75 9.76395 33.2361 0.25 21.5 0.25ZM15.125 15.125C13.9514 15.125 13 16.0764 13 17.25C13 18.4236 13.9514 19.375 15.125 19.375H19.375C20.5486 19.375 21.5 18.4236 21.5 17.25C21.5 16.0764 20.5486 15.125 19.375 15.125H15.125ZM15.125 23.625C13.9514 23.625 13 24.5764 13 25.75C13 26.9236 13.9514 27.875 15.125 27.875H27.875C29.0486 27.875 30 26.9236 30 25.75C30 24.5764 29.0486 23.625 27.875 23.625H15.125Z" fill="black"/>
</svg>
