<svg width="28" height="28" viewBox="0 0 28 28" fill="none" xmlns="http://www.w3.org/2000/svg">
<path fill-rule="evenodd" clip-rule="evenodd" d="M14 27.3333C6.6362 27.3333 0.666666 21.3638 0.666666 14C0.666666 6.63618 6.6362 0.666646 14 0.666646C21.3638 0.666646 27.3333 6.63618 27.3333 14C27.3333 21.3638 21.3638 27.3333 14 27.3333ZM14 20.6666C14.7364 20.6666 15.3333 20.0697 15.3333 19.3333V14C15.3333 13.2636 14.7364 12.6666 14 12.6666C13.2636 12.6666 12.6667 13.2636 12.6667 14V19.3333C12.6667 20.0697 13.2636 20.6666 14 20.6666ZM12.6667 8.66665C12.6667 9.40303 13.2636 9.99998 14 9.99998H14.0133C14.7497 9.99998 15.3467 9.40303 15.3467 8.66665C15.3467 7.93027 14.7497 7.33331 14.0133 7.33331H14C13.2636 7.33331 12.6667 7.93027 12.6667 8.66665Z" fill="black"/>
</svg>
