<svg width="44" height="44" viewBox="0 0 44 44" fill="none" xmlns="http://www.w3.org/2000/svg">
<path fill-rule="evenodd" clip-rule="evenodd" d="M22 3.66669C16.9374 3.66669 12.8333 7.77074 12.8333 12.8334C12.8333 17.896 16.9374 22 22 22C27.0626 22 31.1667 17.896 31.1667 12.8334C31.1667 7.77074 27.0626 3.66669 22 3.66669Z" fill="#000"/>
<path fill-rule="evenodd" clip-rule="evenodd" d="M22 23.8333C14.7342 23.8333 10.0608 26.4847 7.58704 30.5342C6.05173 33.0476 6.63937 35.6631 8.20901 37.4869C9.71476 39.2366 12.1408 40.3333 14.6667 40.3333H29.3333C31.8592 40.3333 34.2852 39.2366 35.791 37.4869C37.3606 35.6631 37.9483 33.0475 36.413 30.5342C33.9392 26.4847 29.2658 23.8333 22 23.8333Z" fill="#000"/>
</svg>
